<svg width="37" height="36" viewBox="0 0 37 36" fill="none" xmlns="http://www.w3.org/2000/svg">
<path d="M11 13.5L16.625 18C17.1571 18.426 17.8184 18.6581 18.5 18.6581C19.1816 18.6581 19.8429 18.426 20.375 18L26 13.5M32 25.5V10.5C32 9.70435 31.6839 8.94129 31.1213 8.37868C30.5587 7.81607 29.7956 7.5 29 7.5H8C7.20435 7.5 6.44129 7.81607 5.87868 8.37868C5.31607 8.94129 5 9.70435 5 10.5V25.5C5 26.2956 5.31607 27.0587 5.87868 27.6213C6.44129 28.1839 7.20435 28.5 8 28.5H29C29.7956 28.5 30.5587 28.1839 31.1213 27.6213C31.6839 27.0587 32 26.2956 32 25.5Z" stroke="#292524" stroke-width="3" stroke-linecap="round" stroke-linejoin="round"/>
</svg>
